The People Under the Stairs 1991 DVDRip BigPerm LKRG

encoded by bigperm  
http://img441.imageshack.us/img441/5863/547pdk.gif	

Two adults and a juvenile burglar break into a house occupied by a brother and sister and their stolen children and can't escape. 

Cast:


Brandon Quintin Adams................Poindexter 'Fool' Williams (as Brandon Adams)
Everett McGill.......................Man / Dad / Eldon Robeson
Wendy Robie..........................Woman; Mom
A.J. Langer..........................Alice
Ving Rhame...........................Leroy
Sean Whalen..........................Roach
Bill Cobbs...........................Grandpa Booker
Kelly Jo Minter......................Ruby Williams
Jeremy Roberts.......................Spenser
Conni Marie Brazelton................Mary
Joshua Cox...........................Young cop
John Hostetter.......................Veteran cop
John Mahon...........................Police sergeant
Teresa Velarde.......................Social worker
George R. Parker.....................Attic Cop


General:

Format : MPEG-4
Format profile : Base Media / Version 2
Codec ID : mp42
File size : 875 MiB
Duration : 1h 41mn
Overall bit rate : 1 199 Kbps

Video:

ID : 1
Format : AVC
Format/Info : Advanced Video Codec
Format profile : Main@L3.0
Format settings, CABAC : Yes
Format settings, ReFrames : 2 frames
Codec ID : avc1
Codec ID/Info : Advanced Video Coding
Duration : 1h 41mn
Bit rate mode : Variable
Bit rate : 1 034 Kbps
Width : 720 pixels
Height : 462 pixels
Display aspect ratio : 16:9
Frame rate mode : Variable
Frame rate : 23.976 fps
Minimum frame rate : 11.989 fps
Maximum frame rate : 29.970 fps
Resolution : 8 bits
Colorimetry : 4:2:0
Scan type : Progressive
Bits/(Pixel*Frame) : 0.130
Stream size : 754 MiB (86%)
Writing library : x264 core 79

Audio:

ID : 2
Format : AAC
Format/Info : Advanced Audio Codec
Format version : Version 4
Format profile : LC
Format settings, SBR : No
Codec ID : 40
Duration : 1h 41mn
Bit rate mode : Variable
Bit rate : 160 Kbps
Maximum bit rate : 220 Kbps
Channel(s) : 2 channels
Channel positions : Front: L R
Sampling rate : 48.0 KHz
Stream size : 117 MiB (13%)
Language : English